<svg width="142" height="38" viewBox="0 0 150 38" fill="none" xmlns="http://www.w3.org/2000/svg">
<path d="M4.54392 17.5595L4.1482 18.2449V26.4331L4.54392 26.6616L18.7264 18.4733L19.1221 17.7879V9.59971L18.7264 9.37125L4.54392 17.5595ZM18.3306 17.7879L4.93964 25.5192V18.2449L18.3306 10.5136V17.7879Z" fill="#FAFAFA"/>
<path d="M11.6351 22.1106L4.54388 18.0164V26.2047L11.6351 30.2988V22.1106Z" fill="#737373"/>
<path d="M4.54389 17.5595L4.14817 17.788V25.9762L4.54389 26.6616L11.6351 30.7557L12.0308 30.5273V22.339L11.6351 21.6536L4.54389 17.5595ZM11.2394 29.6134L4.93961 25.9762V18.7019L11.2394 22.339V29.6134Z" fill="#FAFAFA"/>
<path d="M9.35834 20.7914L6.82067 19.3263V22.2566L9.35834 23.7217V20.7914Z" fill="#737373"/>
<path d="M6.4249 18.6409V22.485L9.75403 24.4071V20.563L6.4249 18.6409ZM8.96259 23.0363L7.21634 22.0281V20.0117L8.96259 21.0199V23.0363Z" fill="#FAFAFA"/>
<path d="M25.8175 13.9223L11.635 22.1106L4.54379 18.0164L18.7263 9.82818L25.8175 13.9223Z" fill="#0A0A0A"/>
<path d="M12.0308 22.339L11.2394 22.339L4.14818 18.2449L4.14818 17.788L18.3306 9.59973L19.122 9.59973L26.2133 13.6938L26.2133 14.1508L12.0308 22.339ZM18.7263 10.2851L5.33533 18.0164L11.6351 21.6536L25.0261 13.9223L18.7263 10.2851Z" fill="#FAFAFA"/>
<path d="M32.909 18.0165L18.7265 26.2047V34.393L32.909 26.2047V18.0165Z" fill="#0A0A0A"/>
<path d="M18.7265 25.7478L18.3308 26.4332V34.6214L18.7265 34.8499L33.3047 26.4332V17.788L32.9089 17.5595L18.7265 25.7478ZM32.5132 25.9762L19.1222 33.7075V26.4332L32.5132 18.7019V25.9762Z" fill="#FAFAFA"/>
<path d="M18.7265 26.2047L11.6352 22.1106V30.2988L18.7265 34.393V26.2047Z" fill="#737373"/>
<path d="M11.6352 21.6537L11.2395 21.8821V30.0704L11.6352 30.7558L18.7264 34.8499L19.1222 34.6214V26.4332L18.7264 25.7478L11.6352 21.6537ZM18.3307 33.7075L12.0309 30.0704V22.796L18.3307 26.4332V33.7075Z" fill="#FAFAFA"/>
<path d="M16.4496 24.8856L13.912 23.4205V26.3507L16.4496 27.8158V24.8856Z" fill="#737373"/>
<path d="M13.5162 22.735V26.5792L16.8453 28.5013V24.6571L13.5162 22.735ZM16.0539 27.1305L14.3076 26.1223V24.1058L16.0539 25.1141V27.1305Z" fill="#FAFAFA"/>
<path d="M32.909 18.0165L18.7265 26.2047L15.1808 24.1577L29.3633 15.9694L32.909 18.0165Z" fill="#0A0A0A"/>
<path d="M19.1223 26.4332L18.3309 26.4332L14.7852 24.3861L14.7852 23.9291L28.9676 15.7409L29.759 15.7409L33.3047 17.788V18.2449L19.1223 26.4332ZM29.3633 16.4263L15.9723 24.1576L18.7266 25.7478L32.1176 18.0165L29.3633 16.4263Z" fill="#FAFAFA"/>
<path d="M29.3634 7.78112L15.1809 15.9694V24.1577L29.3634 15.9694V7.78112Z" fill="#0A0A0A"/>
<path d="M15.181 15.5124L14.7853 16.1978V24.3861L15.181 24.6145L29.3634 16.4263L29.7591 15.7409V7.55266L29.3634 7.32419L15.181 15.5124ZM28.9677 15.7409L15.5767 23.4722V16.1978L28.9677 8.46653V15.7409Z" fill="#FAFAFA"/>
<path d="M8.08976 11.4183L7.69404 12.1037V20.292L8.08976 20.5204L22.2722 12.3322L22.6679 11.6468V3.45856L22.2722 3.23009L8.08976 11.4183ZM21.8765 11.6468L8.48547 19.3781V12.1037L21.8765 4.37243V11.6468Z" fill="#FAFAFA"/>
<path d="M15.1809 15.9694L8.08969 11.8752V20.0635L15.1809 24.1576V15.9694Z" fill="#737373"/>
<path d="M8.0897 11.4183L7.69398 11.6468V19.835L8.0897 20.5204L15.1809 24.6145L15.5766 24.3861V16.1978L15.1809 15.5124L8.0897 11.4183ZM14.7852 23.4722L8.48541 19.835V12.5607L14.7852 16.1978V23.4722Z" fill="#FAFAFA"/>
<path d="M12.9041 14.775L10.3664 13.3099V16.2401L12.9041 17.7052V14.775Z" fill="#737373"/>
<path d="M9.97068 12.4997V16.3438L13.2998 18.2659V14.4218L9.97068 12.4997ZM12.5084 16.8951L10.7621 15.8869V13.8705L12.5084 14.8787V16.8951Z" fill="#FAFAFA"/>
<path d="M29.3634 7.78112L15.1809 15.9694L8.08969 11.8753L22.2722 3.68699L29.3634 7.78112Z" fill="#0A0A0A"/>
<path d="M15.5768 16.1978L14.7853 16.1978L7.69411 12.1037L7.69411 11.6468L21.8765 3.45854L22.668 3.45854L29.7592 7.55266L29.7592 8.00959L15.5768 16.1978ZM22.2723 4.14394L8.88126 11.8752L15.181 15.5124L28.572 7.78112L22.2723 4.14394Z" fill="#FAFAFA"/>
<path d="M61.5431 28.1347V9.20775H65.4119L74.6398 22.2673V9.20775H78.5087V28.1347H74.6398L65.4119 15.1021V28.1347H61.5431Z" fill="#FAFAFA"/>
<path d="M43.4715 28.1347V9.20775H50.9513C52.5753 9.20775 53.9127 9.46912 54.9635 9.99187C56.0143 10.5146 56.7976 11.2176 57.3134 12.1009C57.8293 12.9661 58.0872 13.9305 58.0872 14.994C58.0872 16.0034 57.8388 16.9498 57.3421 17.833C56.8453 18.6983 56.062 19.4013 54.9921 19.942C53.9413 20.4648 52.5848 20.7261 50.9227 20.7261H47.3404V28.1347H43.4715ZM53.8744 28.1347L49.7477 19.8068H53.9318L58.2878 28.1347H53.8744ZM47.3404 18.0764H50.722C51.8875 18.0764 52.7472 17.806 53.3013 17.2652C53.8553 16.7244 54.1324 16.0124 54.1324 15.1292C54.1324 14.2459 53.8553 13.5519 53.3013 13.0472C52.7663 12.5245 51.9066 12.2631 50.722 12.2631H47.3404V18.0764Z" fill="#FAFAFA"/>
<path d="M142.701 28.4591C141.325 28.4591 140.083 28.1617 138.975 27.5669C137.886 26.954 137.017 26.1158 136.367 25.0523C135.737 23.9708 135.422 22.736 135.422 21.348C135.422 19.924 135.737 18.6802 136.367 17.6167C137.017 16.5352 137.896 15.697 139.004 15.1021C140.112 14.4893 141.354 14.1828 142.729 14.1828C144.124 14.1828 145.366 14.4893 146.455 15.1021C147.563 15.697 148.432 16.5352 149.063 17.6167C149.712 18.6802 150.037 19.915 150.037 21.321C150.037 22.727 149.712 23.9708 149.063 25.0523C148.432 26.1158 147.563 26.954 146.455 27.5669C145.347 28.1617 144.095 28.4591 142.701 28.4591ZM142.701 25.2956C143.35 25.2956 143.923 25.1514 144.42 24.863C144.936 24.5746 145.337 24.133 145.624 23.5381C145.93 22.9433 146.082 22.2043 146.082 21.321C146.082 20.4377 145.93 19.7077 145.624 19.1309C145.337 18.536 144.936 18.0944 144.42 17.806C143.923 17.4996 143.36 17.3463 142.729 17.3463C142.118 17.3463 141.554 17.4996 141.039 17.806C140.523 18.0944 140.112 18.536 139.806 19.1309C139.52 19.7077 139.376 20.4377 139.376 21.321C139.376 22.2043 139.52 22.9433 139.806 23.5381C140.112 24.133 140.513 24.5746 141.01 24.863C141.526 25.1514 142.089 25.2956 142.701 25.2956Z" fill="#FAFAFA"/>
<path d="M117.302 34.0831V14.5073H120.741L121.171 16.4C121.476 16.0034 121.839 15.6429 122.26 15.3185C122.68 14.976 123.177 14.7056 123.75 14.5073C124.342 14.291 125.03 14.1828 125.813 14.1828C127.17 14.1828 128.364 14.4983 129.396 15.1292C130.427 15.7601 131.239 16.6163 131.832 17.6978C132.443 18.7614 132.749 19.9781 132.749 21.348C132.749 22.718 132.443 23.9437 131.832 25.0253C131.22 26.0888 130.399 26.927 129.367 27.5398C128.335 28.1527 127.16 28.4591 125.842 28.4591C124.772 28.4591 123.845 28.2789 123.062 27.9184C122.298 27.5398 121.667 27.0261 121.171 26.3772V34.0831H117.302ZM124.925 25.2686C125.689 25.2686 126.358 25.1064 126.931 24.7819C127.523 24.4575 127.982 23.9978 128.307 23.403C128.631 22.8081 128.794 22.1231 128.794 21.348C128.794 20.5729 128.631 19.888 128.307 19.2931C127.982 18.6802 127.523 18.2116 126.931 17.8871C126.358 17.5446 125.689 17.3734 124.925 17.3734C124.18 17.3734 123.511 17.5446 122.919 17.8871C122.346 18.2116 121.887 18.6712 121.543 19.2661C121.218 19.8609 121.056 20.5459 121.056 21.321C121.056 22.0961 121.218 22.7901 121.543 23.403C121.887 23.9978 122.346 24.4575 122.919 24.7819C123.511 25.1064 124.18 25.2686 124.925 25.2686Z" fill="#FAFAFA"/>
<path d="M107.199 28.4591C105.747 28.4591 104.457 28.1707 103.33 27.5939C102.222 26.9991 101.353 26.1789 100.722 25.1334C100.111 24.0699 99.805 22.8442 99.805 21.4562C99.805 20.0322 100.111 18.7794 100.722 17.6978C101.333 16.5983 102.193 15.7421 103.301 15.1292C104.429 14.4983 105.728 14.1828 107.199 14.1828C108.632 14.1828 109.883 14.4803 110.953 15.0751C112.023 15.67 112.854 16.4721 113.446 17.4815C114.039 18.491 114.335 19.6356 114.335 20.9154C114.335 21.0957 114.335 21.303 114.335 21.5373C114.335 21.7536 114.316 21.9789 114.277 22.2133H102.556V19.9961H110.437C110.38 19.1129 110.046 18.4189 109.434 17.9141C108.842 17.4094 108.097 17.1571 107.199 17.1571C106.549 17.1571 105.947 17.3013 105.393 17.5897C104.839 17.8601 104.4 18.2837 104.075 18.8605C103.769 19.4373 103.617 20.1674 103.617 21.0506V21.8347C103.617 22.5738 103.76 23.2227 104.046 23.7815C104.352 24.3223 104.772 24.7459 105.307 25.0523C105.842 25.3407 106.463 25.4849 107.17 25.4849C107.877 25.4849 108.46 25.3407 108.918 25.0523C109.396 24.7639 109.749 24.3944 109.979 23.9437H113.934C113.666 24.7909 113.217 25.557 112.587 26.242C111.956 26.927 111.182 27.4677 110.265 27.8643C109.348 28.2609 108.326 28.4591 107.199 28.4591Z" fill="#FAFAFA"/>
<path d="M83.1456 28.1347V9.20776H90.6254C92.2493 9.20776 93.5867 9.46913 94.6375 9.99187C95.6883 10.5146 96.4716 11.2176 96.9875 12.1009C97.5033 12.9661 97.7612 13.9305 97.7612 14.994C97.7612 16.0034 97.5129 16.9498 97.0161 17.833C96.5194 18.6983 95.7361 19.4013 94.6662 19.942C93.6154 20.4648 92.2589 20.7261 90.5967 20.7261H87.0144V28.1347H83.1456ZM93.5485 28.1347L89.4217 19.8068H93.6058L97.9618 28.1347H93.5485ZM87.0144 18.0764H90.3961C91.5615 18.0764 92.4213 17.806 92.9753 17.2652C93.5294 16.7245 93.8064 16.0124 93.8064 15.1292C93.8064 14.2459 93.5294 13.5519 92.9753 13.0472C92.4404 12.5245 91.5806 12.2631 90.3961 12.2631H87.0144V18.0764Z" fill="#FAFAFA"/>
</svg>
