<svg viewBox="0 0 90 48" fill="none" xmlns="http://www.w3.org/2000/svg">
  <g clip-path="url(#clip0_swm)">
    <path fill-rule="evenodd" clip-rule="evenodd" d="M0.0744019 0.0744934H75.3195L89.6 14.3549V47.7396H14.3548L0.0744019 33.4592V0.0744934ZM1.19068 1.9801V32.9968L14.0279 45.834V14.8173L1.19068 1.9801ZM1.98001 1.19077L14.8172 14.028H87.6944L74.8572 1.19077H1.98001ZM88.4837 46.6233H15.1442V15.1443H88.4837V46.6233Z" fill="currentColor"/>
    <path d="M28.3163 27.6093C28.3163 28.7256 27.5721 29.693 25.7861 29.693C25.0047 29.693 24.3721 29.507 23.814 29.2837V27.7209C24.4093 28.0186 25.1163 28.2047 25.7488 28.2047C26.3442 28.2047 26.6419 28.0186 26.6419 27.6837C26.6419 26.6419 23.814 26.9767 23.814 24.8558C23.814 23.5535 24.8558 22.7721 26.307 22.7721C26.9023 22.7721 27.4605 22.9209 28.0558 23.2558V24.8558C27.2744 24.3721 26.7163 24.2233 26.2698 24.2233C25.7488 24.2233 25.4512 24.4093 25.4512 24.7442C25.414 25.7116 28.3163 25.3395 28.3163 27.6093Z" fill="currentColor"/>
    <path d="M29.7302 26.2326C29.7302 24.3349 31.293 22.7721 33.1906 22.7721C35.0883 22.7721 36.6511 24.3349 36.6511 26.2326C36.6511 28.1302 35.0883 29.693 33.1906 29.693C31.293 29.6558 29.7302 28.1302 29.7302 26.2326ZM34.9395 26.2326C34.9395 25.1907 34.1581 24.4093 33.1906 24.4093C32.2232 24.4093 31.4418 25.1907 31.4418 26.2326C31.4418 27.2744 32.2232 28.0558 33.1906 28.0558C34.1581 28.0558 34.9395 27.2744 34.9395 26.2326Z" fill="currentColor"/>
    <path d="M40.5209 22.3628V22.9209H42.7163L41.9721 24.4837H40.5581V29.5442H38.9581V24.4465H37.8419V22.8837H38.9581V22.2512C38.9581 20.2419 40 19.2372 41.6372 19.2372C42.0465 19.2372 42.4186 19.3116 42.7535 19.386V20.9488C42.4558 20.8372 42.1209 20.8 41.786 20.8C40.893 20.8 40.5209 21.3954 40.5209 22.3628Z" fill="currentColor"/>
    <path d="M46.0651 24.4465V27.0884C46.0651 27.7954 46.4744 28.093 47.1069 28.093C47.5162 28.093 47.9255 27.9814 48.2604 27.7581V29.3954C47.8139 29.5814 47.4046 29.693 46.8092 29.693C45.3581 29.693 44.4651 28.9116 44.4651 27.3116V24.4837H43.4976V22.9209H44.4651V21.2093L46.0651 20.8V22.9209H48.2604V24.4837H46.0651V24.4465Z" fill="currentColor"/>
    <path d="M59.8325 22.9209L57.7116 29.5442H56.1116L54.6604 25.0046L53.172 29.5442H51.572L49.4511 22.9209H51.2744L52.4651 27.3488L53.879 22.9209H55.479L56.893 27.3488L58.0837 22.9209C58.0837 22.9209 59.8325 22.9209 59.8325 22.9209Z" fill="currentColor"/>
    <path d="M60.6512 26.2326C60.6512 24.3349 62.0279 22.7721 63.9256 22.7721C64.6698 22.7721 65.2651 22.9953 65.7117 23.3674V22.9209H67.3116V29.5442H65.7489V29.0233C65.3023 29.4326 64.6698 29.693 63.8884 29.693C62.0651 29.6558 60.6512 28.1302 60.6512 26.2326ZM65.8605 26.2326C65.8605 25.1907 65.0791 24.4093 64.1117 24.4093C63.1442 24.4093 62.3628 25.1907 62.3628 26.2326C62.3628 27.2744 63.1442 28.0558 64.1117 28.0558C65.0791 28.0558 65.8605 27.2744 65.8605 26.2326Z" fill="currentColor"/>
    <path d="M69.5814 22.9209H71.1442V23.814C71.6279 22.9209 72.521 22.7721 73.3024 22.7721V24.6698C72.1861 24.3721 71.1814 25.0047 71.1814 26.4186V29.507H69.5814V22.9209Z" fill="currentColor"/>
    <path d="M78.3628 28.1302C78.9953 28.1302 79.7395 28.0186 80.4837 27.7209L79.6651 29.3954C79.293 29.5442 78.7349 29.693 78.0651 29.693C75.7209 29.693 74.3069 28.2419 74.3069 26.2326C74.3069 24.3349 75.7209 22.7721 77.7674 22.7721C79.1442 22.7721 80.2604 23.4791 80.7069 24.3721V26.7907H76.0186C76.2418 27.5721 77.0232 28.1302 78.3628 28.1302ZM75.9814 25.5256H79.4418C79.2186 24.7442 78.5488 24.2605 77.693 24.2605C76.8744 24.2605 76.2418 24.7814 75.9814 25.5256Z" fill="currentColor"/>
    <path d="M33.0791 35.1256V39.4791H31.4791V35.386C31.4791 34.6791 30.9581 34.2698 30.4372 34.2698C29.8791 34.2698 29.3954 34.6791 29.3954 35.386V39.4791H27.7954V35.386C27.7954 34.6791 27.2744 34.2698 26.7535 34.2698C26.1954 34.2698 25.7116 34.6791 25.7116 35.386V39.4791H24.1116V32.8558H25.6744V33.3395C26.0465 32.893 26.5302 32.7442 27.1628 32.7442C27.8698 32.7442 28.4651 33.0419 28.8744 33.6C29.3954 33.0047 30.0651 32.7442 30.8837 32.7442C32.1116 32.7442 33.0791 33.7116 33.0791 35.1256Z" fill="currentColor"/>
    <path d="M34.7535 36.1674C34.7535 34.2698 36.1302 32.707 38.0279 32.707C38.7721 32.707 39.3674 32.9302 39.8139 33.3023V32.8558H41.4139V39.4791H39.8512V38.9581C39.4046 39.3674 38.7721 39.6279 37.9907 39.6279C36.1674 39.6279 34.7535 38.0651 34.7535 36.1674ZM39.9628 36.1674C39.9628 35.1256 39.1814 34.3442 38.2139 34.3442C37.2465 34.3442 36.4651 35.1256 36.4651 36.1674C36.4651 37.2093 37.2465 37.9907 38.2139 37.9907C39.1814 37.9907 39.9628 37.2093 39.9628 36.1674Z" fill="currentColor"/>
    <path d="M43.6093 32.8558H45.1721V33.3395C45.6558 32.8558 46.2884 32.707 46.9209 32.707C48.2977 32.707 49.414 33.7488 49.414 35.1628V39.4419H47.814V35.5349C47.814 34.8279 47.2558 34.2698 46.5488 34.2698C45.8419 34.2698 45.2837 34.8279 45.2837 35.5349V39.4791H43.6837V32.8558H43.6093Z" fill="currentColor"/>
    <path d="M55.8511 37.5442C55.8511 38.6605 55.107 39.6279 53.3209 39.6279C52.5395 39.6279 51.907 39.4419 51.3488 39.2186V37.6558C51.9442 37.9535 52.6511 38.1395 53.2837 38.1395C53.879 38.1395 54.1767 37.9535 54.1767 37.6186C54.1767 36.5767 51.3488 36.9116 51.3488 34.7907C51.3488 33.4884 52.3907 32.707 53.8418 32.707C54.4372 32.707 54.9953 32.8558 55.5907 33.1907V34.7907C54.8093 34.307 54.2511 34.1581 53.8046 34.1581C53.2837 34.1581 52.986 34.3442 52.986 34.6791C52.9488 35.6837 55.8511 35.3116 55.8511 37.5442Z" fill="currentColor"/>
    <path d="M59.3117 32.8558V39.4791H57.7117V32.8558H59.3117Z" fill="currentColor"/>
    <path d="M60.986 36.1674C60.986 34.2698 62.5488 32.707 64.4465 32.707C66.3442 32.707 67.907 34.2698 67.907 36.1674C67.907 38.0651 66.3442 39.6279 64.4465 39.6279C62.5488 39.6279 60.986 38.0651 60.986 36.1674ZM66.1953 36.1674C66.1953 35.1256 65.4139 34.3442 64.4465 34.3442C63.479 34.3442 62.6977 35.1256 62.6977 36.1674C62.6977 37.2093 63.479 37.9907 64.4465 37.9907C65.4139 37.9907 66.1953 37.2093 66.1953 36.1674Z" fill="currentColor"/>
    <path d="M69.5441 32.8558H71.1069V33.3395C71.5906 32.8558 72.2232 32.707 72.8558 32.707C74.2325 32.707 75.3488 33.7488 75.3488 35.1628V39.4419H73.7488V35.5349C73.7488 34.8279 73.1906 34.2698 72.4837 34.2698C71.7767 34.2698 71.2185 34.8279 71.2185 35.5349V39.4791H69.6186V32.8558H69.5441Z" fill="currentColor"/>
    <path d="M78.5116 37.6558V37.9163H77.9535V39.4791H77.6558V37.9163H77.0977V37.6558H78.5116Z" fill="currentColor"/>
    <path d="M79.1442 37.6558L79.7396 39.107L80.2977 37.6558H80.6698V39.4791H80.3721V38.1395L79.814 39.4791H79.5535L78.9954 38.1395V39.4791H78.6977V37.6558H79.1442Z" fill="currentColor"/>
  </g>
  <defs>
    <clipPath id="clip0_swm">
      <rect width="89.6744" height="48" fill="white"/>
    </clipPath>
  </defs>
</svg>

