<svg width="32" height="32" viewBox="0 0 32 32" fill="none" xmlns="http://www.w3.org/2000/svg">
<g clip-path="url(#clip0_184_3912)">
<rect width="32" height="32" fill="#0A0A0A"/>
<circle cx="16" cy="16.0015" r="14.885" fill="#0A0A0A"/>
<path d="M42.9141 -0.316986L18.5445 13.7528V27.8225L42.9141 13.7528V-0.316986Z" fill="#0A0A0A"/>
<path d="M18.5456 12.9675L17.8657 14.1452V28.2149L18.5456 28.6075L42.915 14.5378L43.595 14.1159V13.3601V-0.709609L42.915 -1.10218L18.5456 12.9675ZM42.2351 13.3601L19.2256 26.6446V14.1452L42.2351 0.860675V13.3601Z" fill="white"/>
<path d="M6.36006 5.93284L5.68011 7.11055V21.1802L6.36006 21.5728L30.7295 7.50312L31.4094 6.32541V-7.74428L30.7295 -8.13685L6.36006 5.93284ZM30.0495 6.32541L7.04001 19.61V7.11055L30.0495 -6.17399V6.32541Z" fill="white"/>
<path d="M18.5449 13.7526L6.36016 6.71775V20.7875L18.5449 27.8224V13.7526Z" fill="#0A0A0A"/>
<path d="M6.36142 5.93266L5.68146 6.32523V20.3949L6.36142 21.5726L18.5461 28.6075L19.2261 28.2149V14.1452L18.5461 12.9675L6.36142 5.93266ZM17.8662 26.6446L7.04137 20.3949V7.89552L17.8662 14.1452V26.6446Z" fill="white"/>
<path d="M14.6306 11.3679L10.2702 8.85037V13.8854L14.6306 16.4028V11.3679Z" fill="#0A0A0A"/>
<path d="M9.59115 7.79079V14.3961L15.3115 17.6988V11.0934L9.59115 7.79079ZM13.9516 15.3433L10.9511 13.611V10.1462L13.9516 11.8786V15.3433Z" fill="white"/>
<path d="M42.9141 -0.316986L18.5445 13.7528L6.35979 6.71789L30.7293 -7.35186L42.9141 -0.316986Z" fill="#0A0A0A"/>
<path d="M19.2246 14.1453L17.8647 14.1453L5.67995 7.11043L5.67995 6.32529L30.0494 -7.7444L31.4093 -7.7444L43.594 -0.709557V0.075585L19.2246 14.1453ZM30.7293 -6.56669L7.71981 6.71786L18.5446 12.9676L41.5541 -0.316986L30.7293 -6.56669Z" fill="white"/>
</g>
<defs>
<clipPath id="clip0_184_3912">
<rect width="32" height="32" fill="white"/>
</clipPath>
</defs>
</svg>
